<svg id="Layer_1" data-name="Layer 1" xmlns="http://www.w3.org/2000/svg" viewBox="0 0 347.29 217.08"><defs><style>.cls-1{fill:#457ec0;}.cls-2{fill:#badaf2;}.cls-3{fill:#a4c03a;}.cls-4{fill:#95aa3b;}.cls-5{fill:#54b7e8;}.cls-6{fill:#5f3d37;}.cls-7{fill:#fff;}.cls-8{fill:#97c7eb;}.cls-9{fill:#75b3dd;}.cls-10{fill:#77973d;}.cls-11{fill:#734d48;}.cls-12{fill:#f05151;}.cls-13{fill:#d8522b;}.cls-14{fill:#f36d3d;}.cls-15{fill:#637d36;}.cls-16{fill:#b4d449;}.cls-17{fill:#f79f8e;}.cls-18{fill:#fbc4b3;}.cls-19{fill:#fee953;}</style></defs><title>mapa</title><path class="cls-1" d="M138.32,236.41,111.62,221c-2.8-1.62-2.44-4.47.79-6.34l47-27.11c3.23-1.87,8.17-2.08,11-.46l26.69,15.41c2.8,1.62,2.45,4.47-.79,6.34l-47,27.12C146.06,237.83,141.12,238,138.32,236.41Z" transform="translate(-66.83 -25.13)"/><path class="cls-1" d="M95.41,211,68.72,195.59c-2.8-1.62-2.45-4.47.79-6.34l47-27.11c3.24-1.87,8.18-2.08,11-.46l26.7,15.41c2.8,1.62,2.44,4.47-.79,6.34l-47,27.12C103.16,212.42,98.21,212.62,95.41,211Z" transform="translate(-66.83 -25.13)"/><polygon class="cls-1" points="208.65 217.08 9.74 102.39 148.38 22.38 347.29 137.07 208.65 217.08"/><polygon class="cls-2" points="208.14 208.38 15.28 97.03 148.61 20.05 341.46 131.4 208.14 208.38"/><polygon class="cls-3" points="208.62 204.62 21.79 96.75 148.12 23.81 334.96 131.68 208.62 204.62"/><path class="cls-4" d="M264,77.29S250.24,88,253.67,98.36s15.94,14.78,18.55,25.38-7,23.57,7.27,38.54,28.82,15.95,36.4,22.05c6.14,4.93,7.2,12,9.39,16.65l27.5-15.88s-5.83-10.63-16.34-16.95-26.34-9.34-30.83-15.54-.65-21-1.91-28.85C301.82,112,284.12,104,281.83,99.22c-1.86-3.87,3.07-9.88,3.07-9.88Z" transform="translate(-66.83 -25.13)"/><path class="cls-4" d="M150.33,86.24c.32-.18,29.32,7.79,31.71,19s-1.26,16.49,4.81,20.08,26.57,14.95,28.21,28-18.62,30.81-18.62,30.81l-22.28-12.86S190.63,160.88,186,153s-20.1-12.13-27.59-18.31-2.94-13.85-6.8-19.5c-5.25-7.67-28.11-13.38-28.11-13.38Z" transform="translate(-66.83 -25.13)"/><path class="cls-5" d="M189.61,180.18s10.39-7.36,16.6-17.92-4-22.12-20.47-30.53-6.86-16-12-25.17c-4.35-7.8-25.34-14.14-31.32-15.75l-13,7.56c4.15,1.19,15.92,4.33,22.45,8.1,9.85,5.69,6.2,12.87,8.57,22s22.85,12.48,29.16,24.22-11.39,20.93-11.39,20.93Z" transform="translate(-66.83 -25.13)"/><path class="cls-5" d="M267.05,79s-9.12,16.3-4.49,23.2c6.48,9.66,23,17.4,18.11,33.28s2.8,28.52,15.51,33.91,24.7,9.36,30.87,15c6.5,6,7.95,10.9,7.95,10.9l12.07-6.69s-6.42-10.87-12.84-14.3c-9.21-4.93-19.61-6.87-28.74-11.55-11.26-5.78-13.71-14.39-12-22.36,1.41-6.53,4.06-17.1-.27-23.89-5.33-8.35-20-12.93-20.39-20.27-.17-3.54,6.78-10,6.78-10Z" transform="translate(-66.83 -25.13)"/><path class="cls-6" d="M229.1,129.4l-18.73,2.74A75.49,75.49,0,0,0,216.71,143l19.16-3.91A56.62,56.62,0,0,1,229.1,129.4Z" transform="translate(-66.83 -25.13)"/><path class="cls-6" d="M244.2,147.55l-18.79,5.63A116,116,0,0,0,236,161.66c4.1-1.7,12.69-5.25,16.9-7C249.89,152.39,247,150,244.2,147.55Z" transform="translate(-66.83 -25.13)"/><path class="cls-6" d="M262.42,161.9l-16.14,7.3a73.37,73.37,0,0,1,7.85,6.7l18.22-6.41C269.39,167.08,266,164.55,262.42,161.9Z" transform="translate(-66.83 -25.13)"/><path class="cls-6" d="M224.78,89l-22.4,2.2a65.24,65.24,0,0,1,1.81,10.1L225,99.93A48,48,0,0,0,224.78,89Z" transform="translate(-66.83 -25.13)"/><path class="cls-6" d="M224.36,111.46V111l-19.73,1.21a49.45,49.45,0,0,0,1.86,9.83l18.75-2.62A36.16,36.16,0,0,1,224.36,111.46Z" transform="translate(-66.83 -25.13)"/><path class="cls-6" d="M212.56,65.82l-18.37,7.32A52.56,52.56,0,0,1,199,81.57l20.76-5.73A68.94,68.94,0,0,0,212.56,65.82Z" transform="translate(-66.83 -25.13)"/><path class="cls-6" d="M256.09,218.85A159.61,159.61,0,0,0,271.47,204l-19.08-4.75a81.27,81.27,0,0,1-12.15,10.45Z" transform="translate(-66.83 -25.13)"/><path class="cls-6" d="M282.72,182a9.13,9.13,0,0,0-1.23-3.14l-22.23,5.28a8.84,8.84,0,0,1,.17,1.44,12.26,12.26,0,0,1-1.15,5.14l22.14.89C282.21,188.19,283.16,184.88,282.72,182Z" transform="translate(-66.83 -25.13)"/><path class="cls-7" d="M201.9,56.52,185.49,66c3.31,2.17,7,4.82,8.24,6.5.15.2.3.43.46.65l18.37-7.32A43.19,43.19,0,0,0,201.9,56.52Z" transform="translate(-66.83 -25.13)"/><path class="cls-7" d="M222.54,81.32a53.56,53.56,0,0,0-2.83-5.48L199,81.57a61.14,61.14,0,0,1,3.43,9.66l22.4-2.2A31.51,31.51,0,0,0,222.54,81.32Z" transform="translate(-66.83 -25.13)"/><path class="cls-7" d="M225,99.93l-20.81,1.4a68.83,68.83,0,0,1,.33,7.73c0,1,0,2.1.11,3.18L224.36,111C224.35,107.19,224.74,103.54,225,99.93Z" transform="translate(-66.83 -25.13)"/><path class="cls-7" d="M225.24,119.45l-18.75,2.62a68.37,68.37,0,0,0,3.88,10.07l18.73-2.74A39,39,0,0,1,225.24,119.45Z" transform="translate(-66.83 -25.13)"/><path class="cls-7" d="M240.1,143.69c-1.58-1.57-3-3.09-4.23-4.59L216.71,143a72.82,72.82,0,0,0,6.22,7.71c.77.83,1.6,1.65,2.48,2.46l18.79-5.63C242.78,146.28,241.4,145,240.1,143.69Z" transform="translate(-66.83 -25.13)"/><path class="cls-7" d="M252.87,154.7c-4.21,1.71-12.8,5.26-16.9,7,3.48,2.55,7,5.06,10.31,7.54l16.14-7.3C259.31,159.59,256.07,157.19,252.87,154.7Z" transform="translate(-66.83 -25.13)"/><path class="cls-7" d="M272.35,169.49l-18.22,6.41c2.7,2.76,4.58,5.5,5.13,8.27l22.23-5.28C279.79,176,276.5,172.87,272.35,169.49Z" transform="translate(-66.83 -25.13)"/><path class="cls-7" d="M280.42,191.64l-22.14-.89a31.45,31.45,0,0,1-5.89,8.5L271.47,204A63.69,63.69,0,0,0,280.42,191.64Z" transform="translate(-66.83 -25.13)"/><path class="cls-6" d="M287.24,136.65,276.09,147c4.54,1.9,9.11,3.88,13.83,5.62l9.67-11.3C295.42,140,291.29,138.3,287.24,136.65Z" transform="translate(-66.83 -25.13)"/><path class="cls-6" d="M160.89,130.87a31.91,31.91,0,0,0-4.3-1.34l-7.79,10.89c4,1.36,7.73,2.56,11.13,3.6l8.71-10.21C166.09,133,163.56,131.94,160.89,130.87Z" transform="translate(-66.83 -25.13)"/><path class="cls-6" d="M270.09,130.32a79.36,79.36,0,0,0-20-2.36l.45,11.68a60.34,60.34,0,0,1,12.64,2.44c1.85-2.46,6.62-8.91,7.81-11.49Z" transform="translate(-66.83 -25.13)"/><path class="cls-6" d="M210.24,131.93l6.43,11a145.73,145.73,0,0,1,19.62-3.24l-7.35-10.52C222.34,129.92,216,130.91,210.24,131.93Z" transform="translate(-66.83 -25.13)"/><path class="cls-6" d="M180.65,136.25,179,148.39a58.33,58.33,0,0,0,20.24-1.11l-5.84-12A51.54,51.54,0,0,1,180.65,136.25Z" transform="translate(-66.83 -25.13)"/><path class="cls-6" d="M322.72,144.08a37.31,37.31,0,0,1-10.18.2L305.49,157a59.87,59.87,0,0,0,23.78-.59l-2.78-13C325.18,143.63,323.92,143.89,322.72,144.08Z" transform="translate(-66.83 -25.13)"/><path class="cls-6" d="M108.92,133.6l14.72,8.49c3.52-.76,7.51-1.81,12-2.41l-2.44-11.34A99.65,99.65,0,0,0,108.92,133.6Z" transform="translate(-66.83 -25.13)"/><path class="cls-6" d="M371.65,139.28l-14-7.93a160.06,160.06,0,0,1-18.54,8.11l10.33,10.38A180.45,180.45,0,0,0,371.65,139.28Z" transform="translate(-66.83 -25.13)"/><path class="cls-7" d="M195.48,134.87c-.72.16-1.41.29-2.11.42l5.84,12c1.3-.29,2.64-.6,4-1,4.26-1.12,8.77-2.3,13.44-3.37l-6.43-11C204.45,133,199.35,134,195.48,134.87Z" transform="translate(-66.83 -25.13)"/><path class="cls-7" d="M168.64,133.81,159.93,144a111,111,0,0,0,19,4.37l1.68-12.14A44.45,44.45,0,0,1,168.64,133.81Z" transform="translate(-66.83 -25.13)"/><path class="cls-7" d="M133.17,128.34l2.44,11.34c4.45-.59,9-.66,13,.67l.23.07,7.79-10.89C150.75,128.12,142.56,127.5,133.17,128.34Z" transform="translate(-66.83 -25.13)"/><path class="cls-7" d="M228.94,129.18l7.35,10.52a82.94,82.94,0,0,1,14.27-.06L250.11,128A177.87,177.87,0,0,0,228.94,129.18Z" transform="translate(-66.83 -25.13)"/><path class="cls-7" d="M271,130.59c-1.19,2.58-6,9-7.81,11.49.47.15.94.27,1.4.42,3.85,1.32,7.66,2.88,11.49,4.49l11.15-10.34C281.65,134.38,276.2,132.11,271,130.59Z" transform="translate(-66.83 -25.13)"/><path class="cls-7" d="M299.59,141.31l-9.67,11.3A87.26,87.26,0,0,0,305.49,157l7.05-12.67A64.6,64.6,0,0,1,299.59,141.31Z" transform="translate(-66.83 -25.13)"/><path class="cls-7" d="M349.44,149.84l-10.33-10.38a110,110,0,0,1-12.62,3.86l2.78,13c1-.23,2-.48,3-.76A166.76,166.76,0,0,0,349.44,149.84Z" transform="translate(-66.83 -25.13)"/><polygon class="cls-8" points="15.28 100.5 15.28 97.03 208.19 208.35 208.19 211.81 15.28 100.5"/><polygon class="cls-9" points="341.46 134.86 341.46 131.4 208.19 208.35 208.19 211.81 341.46 134.86"/><path class="cls-4" d="M310.57,123.9c0-2,3-3.62,6.76-3.62s6.85,1.62,6.85,3.62-3.09,3.62-6.85,3.62S310.57,125.9,310.57,123.9Z" transform="translate(-66.83 -25.13)"/><path class="cls-4" d="M241.59,84.33c0-2,3-3.62,6.76-3.62s6.85,1.62,6.85,3.62S252.11,88,248.35,88,241.59,86.33,241.59,84.33Z" transform="translate(-66.83 -25.13)"/><path class="cls-4" d="M224,71.64c0-2,3-3.62,6.76-3.62s6.85,1.62,6.85,3.62-3.09,3.62-6.85,3.62S224,73.64,224,71.64Z" transform="translate(-66.83 -25.13)"/><path class="cls-4" d="M184.63,102.09c0-2,3-3.62,6.76-3.62s6.84,1.62,6.84,3.62-3.09,3.62-6.84,3.62S184.63,104.09,184.63,102.09Z" transform="translate(-66.83 -25.13)"/><path class="cls-4" d="M173.74,80.29c0-2,3-3.62,6.76-3.62s6.85,1.62,6.85,3.62-3.09,3.62-6.85,3.62S173.74,82.29,173.74,80.29Z" transform="translate(-66.83 -25.13)"/><path class="cls-4" d="M114.49,125.25c0-2,3-3.62,6.76-3.62s6.84,1.62,6.84,3.62-3.09,3.62-6.84,3.62S114.49,127.25,114.49,125.25Z" transform="translate(-66.83 -25.13)"/><path class="cls-4" d="M354.68,171.45c0-2,3-3.62,6.76-3.62s6.84,1.62,6.84,3.62-3.09,3.62-6.84,3.62S354.68,173.45,354.68,171.45Z" transform="translate(-66.83 -25.13)"/><path class="cls-4" d="M374.83,158.85c0-2,3-3.62,6.76-3.62s6.85,1.62,6.85,3.62-3.09,3.62-6.85,3.62S374.83,160.85,374.83,158.85Z" transform="translate(-66.83 -25.13)"/><polygon class="cls-6" points="163.87 36.44 162.66 35.74 162.66 45.66 163.87 46.36 163.87 36.44"/><polygon class="cls-10" points="163.87 0.09 158.65 6.76 163.87 9.77 163.87 0.09"/><polygon class="cls-10" points="163.87 7.27 158.14 14.6 163.87 17.91 163.87 7.27"/><polygon class="cls-10" points="163.87 13.77 156.62 23.05 163.87 27.24 163.87 13.77"/><polygon class="cls-10" points="163.87 22.8 155.73 33.21 163.87 37.91 163.87 22.8"/><polygon class="cls-11" points="165.21 45.66 162.66 47.13 162.66 37.21 165.21 35.74 165.21 45.66"/><polygon class="cls-4" points="163.94 0 158.65 12.86 163.94 9.81 169.22 6.76 163.94 0"/><polygon class="cls-4" points="163.94 7.18 158.14 21.29 163.94 17.95 169.73 14.6 163.94 7.18"/><polygon class="cls-4" points="163.94 13.68 156.62 31.51 163.94 27.28 171.26 23.05 163.94 13.68"/><polygon class="cls-4" points="163.94 22.71 155.73 42.69 163.94 37.95 172.14 33.21 163.94 22.71"/><polygon class="cls-6" points="163.94 36.44 163.94 46.36 165.28 47.13 165.28 37.21 163.94 36.44"/><polygon class="cls-10" points="164.01 0 163.94 0.09 163.94 9.77 164.01 9.81 169.29 12.86 164.01 0"/><polygon class="cls-10" points="164.01 7.18 163.94 7.27 163.94 17.91 164.01 17.95 169.8 21.29 164.01 7.18"/><polygon class="cls-10" points="164.01 13.68 163.94 13.77 163.94 27.24 164.01 27.28 171.33 31.51 164.01 13.68"/><polygon class="cls-10" points="164.01 22.71 163.94 22.8 163.94 37.91 164.01 37.95 172.21 42.69 164.01 22.71"/><polygon class="cls-6" points="250.44 89.05 249.24 88.36 249.24 98.28 250.44 98.97 250.44 89.05"/><polygon class="cls-10" points="250.44 52.7 245.23 59.38 250.44 62.38 250.44 52.7"/><polygon class="cls-10" points="250.44 59.89 244.72 67.22 250.44 70.52 250.44 59.89"/><polygon class="cls-10" points="250.44 66.38 243.19 75.67 250.44 79.86 250.44 66.38"/><polygon class="cls-10" points="250.44 75.41 242.31 85.83 250.44 90.52 250.44 75.41"/><polygon class="cls-11" points="251.78 98.28 249.24 99.74 249.24 89.83 251.78 88.36 251.78 98.28"/><polygon class="cls-4" points="250.51 52.61 245.23 65.48 250.51 62.43 255.79 59.38 250.51 52.61"/><polygon class="cls-4" points="250.51 59.8 244.72 73.9 250.51 70.56 256.31 67.22 250.51 59.8"/><polygon class="cls-4" points="250.51 66.29 243.19 84.12 250.51 79.9 257.83 75.67 250.51 66.29"/><polygon class="cls-4" points="250.51 75.32 242.31 95.3 250.51 90.56 258.72 85.83 250.51 75.32"/><polygon class="cls-6" points="250.51 89.05 250.51 98.97 251.85 99.74 251.85 89.83 250.51 89.05"/><polygon class="cls-10" points="250.58 52.61 250.51 52.7 250.51 62.38 250.58 62.43 255.87 65.48 250.58 52.61"/><polygon class="cls-10" points="250.58 59.8 250.51 59.89 250.51 70.52 250.58 70.56 256.38 73.9 250.58 59.8"/><polygon class="cls-10" points="250.58 66.29 250.51 66.38 250.51 79.86 250.58 79.9 257.9 84.12 250.58 66.29"/><polygon class="cls-10" points="250.58 75.32 250.51 75.41 250.51 90.52 250.58 90.56 258.79 95.3 250.58 75.32"/><polygon class="cls-6" points="181.49 49.29 180.29 48.59 180.29 58.51 181.49 59.2 181.49 49.29"/><polygon class="cls-10" points="181.49 12.94 176.28 19.61 181.49 22.62 181.49 12.94"/><polygon class="cls-10" points="181.49 20.12 175.77 27.45 181.49 30.75 181.49 20.12"/><polygon class="cls-10" points="181.49 26.62 174.24 35.9 181.49 40.09 181.49 26.62"/><polygon class="cls-10" points="181.49 35.64 173.36 46.06 181.49 50.76 181.49 35.64"/><polygon class="cls-11" points="182.83 58.51 180.29 59.98 180.29 50.06 182.83 48.59 182.83 58.51"/><polygon class="cls-4" points="181.56 12.85 176.28 25.71 181.56 22.66 186.84 19.61 181.56 12.85"/><polygon class="cls-4" points="181.56 20.03 175.77 34.14 181.56 30.79 187.36 27.45 181.56 20.03"/><polygon class="cls-4" points="181.56 26.53 174.24 44.36 181.56 40.13 188.88 35.9 181.56 26.53"/><polygon class="cls-4" points="181.56 35.55 173.36 55.54 181.56 50.8 189.77 46.06 181.56 35.55"/><polygon class="cls-6" points="181.56 49.29 181.56 59.2 182.91 59.98 182.91 50.06 181.56 49.29"/><polygon class="cls-10" points="181.63 12.85 181.56 12.94 181.56 22.62 181.63 22.66 186.92 25.71 181.63 12.85"/><polygon class="cls-10" points="181.63 20.03 181.56 20.12 181.56 30.75 181.63 30.79 187.43 34.14 181.63 20.03"/><polygon class="cls-10" points="181.63 26.53 181.56 26.62 181.56 40.09 181.63 40.13 188.96 44.36 181.63 26.53"/><polygon class="cls-10" points="181.63 35.55 181.56 35.64 181.56 50.76 181.63 50.8 189.84 55.54 181.63 35.55"/><polygon class="cls-6" points="294.65 136.56 293.45 135.87 293.45 145.79 294.65 146.48 294.65 136.56"/><polygon class="cls-10" points="294.65 100.21 289.44 106.89 294.65 109.89 294.65 100.21"/><polygon class="cls-10" points="294.65 107.4 288.93 114.72 294.65 118.03 294.65 107.4"/><polygon class="cls-10" points="294.65 113.89 287.4 123.18 294.65 127.36 294.65 113.89"/><polygon class="cls-10" points="294.65 122.92 286.51 133.34 294.65 138.03 294.65 122.92"/><polygon class="cls-11" points="295.99 145.79 293.45 147.25 293.45 137.34 295.99 135.87 295.99 145.79"/><polygon class="cls-4" points="294.72 100.12 289.44 112.99 294.72 109.94 300 106.89 294.72 100.12"/><polygon class="cls-4" points="294.72 107.31 288.93 121.41 294.72 118.07 300.51 114.72 294.72 107.31"/><polygon class="cls-4" points="294.72 113.8 287.4 131.63 294.72 127.41 302.04 123.18 294.72 113.8"/><polygon class="cls-4" points="294.72 122.83 286.51 142.81 294.72 138.07 302.93 133.34 294.72 122.83"/><polygon class="cls-6" points="294.72 136.56 294.72 146.48 296.06 147.25 296.06 137.34 294.72 136.56"/><polygon class="cls-10" points="294.79 100.12 294.72 100.21 294.72 109.89 294.79 109.94 300.07 112.99 294.79 100.12"/><polygon class="cls-10" points="294.79 107.31 294.72 107.4 294.72 118.03 294.79 118.07 300.58 121.41 294.79 107.31"/><polygon class="cls-10" points="294.79 113.8 294.72 113.89 294.72 127.36 294.79 127.41 302.11 131.63 294.79 113.8"/><polygon class="cls-10" points="294.79 122.83 294.72 122.92 294.72 138.03 294.79 138.07 303 142.81 294.79 122.83"/><path class="cls-4" d="M210.89,182.29c0-2,3-3.62,6.76-3.62s6.84,1.62,6.84,3.62-3.09,3.61-6.84,3.61S210.89,184.28,210.89,182.29Z" transform="translate(-66.83 -25.13)"/><polygon class="cls-6" points="150.86 147.4 149.66 146.7 149.66 156.62 150.86 157.31 150.86 147.4"/><polygon class="cls-10" points="150.86 111.05 145.65 117.72 150.86 120.73 150.86 111.05"/><polygon class="cls-10" points="150.86 118.23 145.14 125.56 150.86 128.86 150.86 118.23"/><polygon class="cls-10" points="150.86 124.73 143.61 134.01 150.86 138.2 150.86 124.73"/><polygon class="cls-10" points="150.86 133.75 142.72 144.17 150.86 148.87 150.86 133.75"/><polygon class="cls-11" points="152.2 156.62 149.66 158.09 149.66 148.17 152.2 146.7 152.2 156.62"/><polygon class="cls-4" points="150.93 110.96 145.65 123.82 150.93 120.77 156.21 117.72 150.93 110.96"/><polygon class="cls-4" points="150.93 118.14 145.14 132.25 150.93 128.91 156.72 125.56 150.93 118.14"/><polygon class="cls-4" points="150.93 124.64 143.61 142.47 150.93 138.24 158.25 134.01 150.93 124.64"/><polygon class="cls-4" points="150.93 133.66 142.72 153.65 150.93 148.91 159.14 144.17 150.93 133.66"/><polygon class="cls-6" points="150.93 147.4 150.93 157.31 152.27 158.09 152.27 148.17 150.93 147.4"/><polygon class="cls-10" points="151 110.96 150.93 111.05 150.93 120.73 151 120.77 156.28 123.82 151 110.96"/><polygon class="cls-10" points="151 118.14 150.93 118.23 150.93 128.86 151 128.91 156.79 132.25 151 118.14"/><polygon class="cls-10" points="151 124.64 150.93 124.73 150.93 138.2 151 138.24 158.32 142.47 151 124.64"/><polygon class="cls-10" points="151 133.66 150.93 133.75 150.93 148.87 151 148.91 159.21 153.65 151 133.66"/><path class="cls-4" d="M252.76,148.88c0-2,3-3.62,6.76-3.62s6.85,1.62,6.85,3.62-3.09,3.62-6.85,3.62S252.76,150.88,252.76,148.88Z" transform="translate(-66.83 -25.13)"/><polygon class="cls-6" points="192.74 113.99 191.53 113.3 191.53 123.22 192.74 123.91 192.74 113.99"/><polygon class="cls-10" points="192.74 77.65 187.52 84.32 192.74 87.33 192.74 77.65"/><polygon class="cls-10" points="192.74 84.83 187.01 92.16 192.74 95.46 192.74 84.83"/><polygon class="cls-10" points="192.74 91.33 185.48 100.61 192.74 104.8 192.74 91.33"/><polygon class="cls-10" points="192.74 100.35 184.6 110.77 192.74 115.47 192.74 100.35"/><polygon class="cls-11" points="194.08 123.22 191.53 124.69 191.53 114.77 194.08 113.3 194.08 123.22"/><polygon class="cls-4" points="192.81 77.56 187.52 90.42 192.81 87.37 198.09 84.32 192.81 77.56"/><polygon class="cls-4" points="192.81 84.74 187.01 98.85 192.81 95.5 198.6 92.16 192.81 84.74"/><polygon class="cls-4" points="192.81 91.24 185.48 109.07 192.81 104.84 200.13 100.61 192.81 91.24"/><polygon class="cls-4" points="192.81 100.26 184.6 120.25 192.81 115.51 201.01 110.77 192.81 100.26"/><polygon class="cls-6" points="192.81 113.99 192.81 123.91 194.15 124.69 194.15 114.77 192.81 113.99"/><polygon class="cls-10" points="192.88 77.56 192.81 77.65 192.81 87.33 192.88 87.37 198.16 90.42 192.88 77.56"/><polygon class="cls-10" points="192.88 84.74 192.81 84.83 192.81 95.46 192.88 95.5 198.67 98.85 192.88 84.74"/><polygon class="cls-10" points="192.88 91.24 192.81 91.33 192.81 104.8 192.88 104.84 200.2 109.07 192.88 91.24"/><polygon class="cls-10" points="192.88 100.26 192.81 100.35 192.81 115.47 192.88 115.51 201.08 120.25 192.88 100.26"/><polygon class="cls-6" points="113.72 45.25 112.52 44.55 112.52 54.47 113.72 55.17 113.72 45.25"/><polygon class="cls-10" points="113.72 8.9 108.51 15.57 113.72 18.58 113.72 8.9"/><polygon class="cls-10" points="113.72 16.08 108 23.41 113.72 26.71 113.72 16.08"/><polygon class="cls-10" points="113.72 22.58 106.47 31.86 113.72 36.05 113.72 22.58"/><polygon class="cls-10" points="113.72 31.61 105.58 42.02 113.72 46.72 113.72 31.61"/><polygon class="cls-11" points="115.06 54.47 112.52 55.94 112.52 46.02 115.06 44.55 115.06 54.47"/><polygon class="cls-4" points="113.79 8.81 108.51 21.67 113.79 18.62 119.07 15.57 113.79 8.81"/><polygon class="cls-4" points="113.79 15.99 108 30.1 113.79 26.76 119.58 23.41 113.79 15.99"/><polygon class="cls-4" points="113.79 22.49 106.47 40.32 113.79 36.09 121.11 31.86 113.79 22.49"/><polygon class="cls-4" points="113.79 31.52 105.58 51.5 113.79 46.76 122 42.02 113.79 31.52"/><polygon class="cls-6" points="113.79 45.25 113.79 55.17 115.13 55.94 115.13 46.02 113.79 45.25"/><polygon class="cls-10" points="113.86 8.81 113.79 8.9 113.79 18.58 113.86 18.62 119.14 21.67 113.86 8.81"/><polygon class="cls-10" points="113.86 15.99 113.79 16.08 113.79 26.71 113.86 26.76 119.65 30.1 113.86 15.99"/><polygon class="cls-10" points="113.86 22.49 113.79 22.58 113.79 36.05 113.86 36.09 121.18 40.32 113.86 22.49"/><polygon class="cls-10" points="113.86 31.52 113.79 31.61 113.79 46.72 113.86 46.76 122.06 51.5 113.86 31.52"/><polygon class="cls-6" points="314.74 123.81 313.54 123.11 313.54 133.03 314.74 133.72 314.74 123.81"/><polygon class="cls-10" points="314.74 87.46 309.53 94.13 314.74 97.14 314.74 87.46"/><polygon class="cls-10" points="314.74 94.64 309.02 101.97 314.74 105.27 314.74 94.64"/><polygon class="cls-10" points="314.74 101.14 307.49 110.42 314.74 114.61 314.74 101.14"/><polygon class="cls-10" points="314.74 110.17 306.6 120.58 314.74 125.28 314.74 110.17"/><polygon class="cls-11" points="316.08 133.03 313.54 134.5 313.54 124.58 316.08 123.11 316.08 133.03"/><polygon class="cls-4" points="314.81 87.37 309.53 100.23 314.81 97.18 320.09 94.13 314.81 87.37"/><polygon class="cls-4" points="314.81 94.55 309.02 108.66 314.81 105.31 320.6 101.97 314.81 94.55"/><polygon class="cls-4" points="314.81 101.05 307.49 118.88 314.81 114.65 322.13 110.42 314.81 101.05"/><polygon class="cls-4" points="314.81 110.07 306.6 130.06 314.81 125.32 323.01 120.58 314.81 110.07"/><polygon class="cls-6" points="314.81 123.81 314.81 133.72 316.15 134.5 316.15 124.58 314.81 123.81"/><polygon class="cls-10" points="314.88 87.37 314.81 87.46 314.81 97.14 314.88 97.18 320.16 100.23 314.88 87.37"/><polygon class="cls-10" points="314.88 94.55 314.81 94.64 314.81 105.27 314.88 105.31 320.67 108.66 314.88 94.55"/><polygon class="cls-10" points="314.88 101.05 314.81 101.14 314.81 114.61 314.88 114.65 322.2 118.88 314.88 101.05"/><polygon class="cls-10" points="314.88 110.07 314.81 110.17 314.81 125.28 314.88 125.32 323.09 130.06 314.88 110.07"/><polygon class="cls-6" points="124.53 67.04 123.33 66.35 123.33 76.27 124.53 76.96 124.53 67.04"/><polygon class="cls-10" points="124.53 30.7 119.32 37.37 124.53 40.38 124.53 30.7"/><polygon class="cls-10" points="124.53 37.88 118.81 45.21 124.53 48.51 124.53 37.88"/><polygon class="cls-10" points="124.53 44.38 117.28 53.66 124.53 57.85 124.53 44.38"/><polygon class="cls-10" points="124.53 53.4 116.39 63.82 124.53 68.52 124.53 53.4"/><polygon class="cls-11" points="125.87 76.27 123.33 77.74 123.33 67.82 125.87 66.35 125.87 76.27"/><polygon class="cls-4" points="124.6 30.6 119.32 43.47 124.6 40.42 129.88 37.37 124.6 30.6"/><polygon class="cls-4" points="124.6 37.79 118.81 51.9 124.6 48.55 130.39 45.21 124.6 37.79"/><polygon class="cls-4" points="124.6 44.28 117.28 62.11 124.6 57.89 131.92 53.66 124.6 44.28"/><polygon class="cls-4" points="124.6 53.31 116.39 73.29 124.6 68.56 132.81 63.82 124.6 53.31"/><polygon class="cls-6" points="124.6 67.04 124.6 76.96 125.94 77.74 125.94 67.82 124.6 67.04"/><polygon class="cls-10" points="124.67 30.6 124.6 30.7 124.6 40.38 124.67 40.42 129.95 43.47 124.67 30.6"/><polygon class="cls-10" points="124.67 37.79 124.6 37.88 124.6 48.51 124.67 48.55 130.46 51.9 124.67 37.79"/><polygon class="cls-10" points="124.67 44.28 124.6 44.38 124.6 57.85 124.67 57.89 131.99 62.11 124.67 44.28"/><polygon class="cls-10" points="124.67 53.31 124.6 53.4 124.6 68.52 124.67 68.56 132.88 73.29 124.67 53.31"/><polygon class="cls-6" points="54.39 89.82 53.19 89.13 53.19 99.05 54.39 99.74 54.39 89.82"/><polygon class="cls-10" points="54.39 53.47 49.18 60.15 54.39 63.16 54.39 53.47"/><polygon class="cls-10" points="54.39 60.66 48.67 67.98 54.39 71.29 54.39 60.66"/><polygon class="cls-10" points="54.39 67.15 47.14 76.44 54.39 80.63 54.39 67.15"/><polygon class="cls-10" points="54.39 76.18 46.25 86.6 54.39 91.29 54.39 76.18"/><polygon class="cls-11" points="55.73 99.05 53.19 100.51 53.19 90.59 55.73 89.13 55.73 99.05"/><polygon class="cls-4" points="54.46 53.38 49.18 66.25 54.46 63.2 59.74 60.15 54.46 53.38"/><polygon class="cls-4" points="54.46 60.57 48.67 74.67 54.46 71.33 60.25 67.98 54.46 60.57"/><polygon class="cls-4" points="54.46 67.06 47.14 84.89 54.46 80.67 61.78 76.44 54.46 67.06"/><polygon class="cls-4" points="54.46 76.09 46.25 96.07 54.46 91.33 62.67 86.6 54.46 76.09"/><polygon class="cls-6" points="54.46 89.82 54.46 99.74 55.8 100.51 55.8 90.59 54.46 89.82"/><polygon class="cls-10" points="54.53 53.38 54.46 53.47 54.46 63.16 54.53 63.2 59.81 66.25 54.53 53.38"/><polygon class="cls-10" points="54.53 60.57 54.46 60.66 54.46 71.29 54.53 71.33 60.32 74.67 54.53 60.57"/><polygon class="cls-10" points="54.53 67.06 54.46 67.15 54.46 80.63 54.53 80.67 61.85 84.89 54.53 67.06"/><polygon class="cls-10" points="54.53 76.09 54.46 76.18 54.46 91.29 54.53 91.33 62.74 96.07 54.53 76.09"/><path class="cls-7" d="M208.13,95.18c0-2,3-3.62,6.76-3.62s6.85,1.62,6.85,3.62-3.09,3.62-6.85,3.62S208.13,97.18,208.13,95.18Z" transform="translate(-66.83 -25.13)"/><path class="cls-12" d="M211.34,95.18c0-1.06,1.59-1.91,3.57-1.91s3.62.85,3.62,1.91-1.63,1.91-3.62,1.91S211.34,96.24,211.34,95.18Z" transform="translate(-66.83 -25.13)"/><path class="cls-7" d="M311.21,150.83c0-2,3-3.62,6.76-3.62s6.85,1.62,6.85,3.62-3.09,3.62-6.85,3.62S311.21,152.83,311.21,150.83Z" transform="translate(-66.83 -25.13)"/><path class="cls-12" d="M314.42,150.83c0-1.05,1.58-1.91,3.57-1.91s3.62.86,3.62,1.91-1.64,1.91-3.62,1.91S314.42,151.89,314.42,150.83Z" transform="translate(-66.83 -25.13)"/><path class="cls-7" d="M233,154.28c0-2,3-3.62,6.75-3.62s6.85,1.62,6.85,3.62-3.09,3.62-6.85,3.62S233,156.28,233,154.28Z" transform="translate(-66.83 -25.13)"/><path class="cls-12" d="M236.15,154.28c0-1.06,1.59-1.91,3.58-1.91s3.61.85,3.61,1.91-1.63,1.91-3.61,1.91S236.15,155.34,236.15,154.28Z" transform="translate(-66.83 -25.13)"/><path class="cls-7" d="M181.69,142.05c0-2,3-3.62,6.76-3.62s6.85,1.62,6.85,3.62-3.09,3.62-6.85,3.62S181.69,144.05,181.69,142.05Z" transform="translate(-66.83 -25.13)"/><path class="cls-12" d="M184.9,142.05c0-1.05,1.59-1.91,3.57-1.91s3.62.86,3.62,1.91-1.63,1.91-3.62,1.91S184.9,143.11,184.9,142.05Z" transform="translate(-66.83 -25.13)"/><path class="cls-13" d="M95,207.48,70,193.06c-2.62-1.51-2.29-4.18.74-5.93l43.94-25.37c3-1.75,7.66-1.94,10.28-.43l25,14.42c2.62,1.52,2.29,4.18-.74,5.93l-43.94,25.37C102.25,208.8,97.63,209,95,207.48Z" transform="translate(-66.83 -25.13)"/><rect class="cls-13" x="83.31" y="152.17" width="1.59" height="1.22"/><rect class="cls-13" x="1.44" y="164.12" width="2.03" height="1.44"/><path class="cls-14" d="M95,206.33,70,191.91c-2.62-1.51-2.29-4.18.74-5.93l43.94-25.37c3-1.75,7.66-1.94,10.28-.43l25,14.42c2.62,1.52,2.29,4.19-.74,5.93L105.28,205.9C102.25,207.65,97.63,207.84,95,206.33Z" transform="translate(-66.83 -25.13)"/><path class="cls-7" d="M96.36,205.19,72,191.13c-2-1.15-1.74-3.17.56-4.49L116,161.57c2.3-1.32,5.79-1.47,7.78-.32l24.36,14.07c2,1.14,1.74,3.16-.56,4.49l-43.41,25.06C101.84,206.2,98.35,206.34,96.36,205.19Zm26.87-43.64a7.59,7.59,0,0,0-6.8.29L73,186.9c-2,1.16-2.23,2.92-.49,3.93l24.36,14.06a7.58,7.58,0,0,0,6.8-.28l43.41-25.07c2-1.16,2.23-2.92.49-3.92Z" transform="translate(-66.83 -25.13)"/><path class="cls-7" d="M118.21,189.16c2-1,3.08-2.14,3.92-2.47l14.81-3-6-2.39,9.1-4.35-11.09-1,5.92-5.68-11.51,1,2.69-5.35-12.25,5.09a13.22,13.22,0,0,0-4.14.5c-2.48.75-3.14,1.59-3.14,1.59s1.42.81,2.1,1.26a9.67,9.67,0,0,1-4.14,2c-1.38.32-3.93.42-7.31,1.08s-1.88,1.8-.89,2.2a2.37,2.37,0,0,1,1.24.86,6.93,6.93,0,0,0-3.29.48c-1.37.55-.49,1.41,0,1.91,0,0-1,.58-.6,1s.26,1.22-1.78,1.11a15.94,15.94,0,0,0-5.33.49c-2.2.51-3.58,2-3.6,2.65s3.87,2.59,6.29,3.54a12.51,12.51,0,0,0,2.67.7,10.29,10.29,0,0,1-1,1,28.06,28.06,0,0,1-3.72,2.76s8.59-.77,12.85-.69a34,34,0,0,1,8,1l1.81-2,1,.56S112.23,192.13,118.21,189.16Z" transform="translate(-66.83 -25.13)"/><path class="cls-14" d="M118.69,186.62s-5.68,2.08-7.13,4.12-1,2.67-1,2.67.44-1.73,3.49-3.74Z" transform="translate(-66.83 -25.13)"/><path class="cls-14" d="M93.37,185.6a18.69,18.69,0,0,0-4.69-.13,9.06,9.06,0,0,0-3.75,1.31,16.48,16.48,0,0,1,4.69-.87A22.42,22.42,0,0,0,93.37,185.6Z" transform="translate(-66.83 -25.13)"/><path class="cls-14" d="M93.61,186.23s-2.68.18-4.5.37a11,11,0,0,0-3.68,1.26,36.52,36.52,0,0,1,4.7-.79A12.61,12.61,0,0,0,93.61,186.23Z" transform="translate(-66.83 -25.13)"/><path class="cls-14" d="M94.53,187.21a8.22,8.22,0,0,1-2.77.48,19.2,19.2,0,0,0-3.79.64,25.74,25.74,0,0,0,4.34-.32A11.07,11.07,0,0,0,94.53,187.21Z" transform="translate(-66.83 -25.13)"/><path class="cls-14" d="M115.61,172c.39.54,3.61,4,5.16,6.9a23,23,0,0,1,2,6.64,11.88,11.88,0,0,0-.68-6.95C120.47,175,115.61,172,115.61,172Z" transform="translate(-66.83 -25.13)"/><path class="cls-14" d="M117.66,182.27c-.47.11-7,3-8.42,6.24s.25,5,.25,5a10.76,10.76,0,0,1,1.65-6.09C113,184.75,117.66,182.27,117.66,182.27Z" transform="translate(-66.83 -25.13)"/><path class="cls-14" d="M95.12,182.74c-.6-.31,1,1.64,1.41,1.8S97.63,184,95.12,182.74Z" transform="translate(-66.83 -25.13)"/><path class="cls-14" d="M108.58,174.28s6.47,4.43,5.86,6.41c-.75,2.44-6.37,3.77-7,6.65a3.91,3.91,0,0,0,1.72,4.27s-1.63-3.91.6-5.86,6.27-3.95,5.84-5.7C115,177.79,111,175,108.58,174.28Z" transform="translate(-66.83 -25.13)"/><path class="cls-14" d="M90.91,192.11a39.37,39.37,0,0,0,7.11.21c3-.29,9.49-2.66,9.49-2.66l.34.4a52.25,52.25,0,0,1-9.35,3,44,44,0,0,1-7.89.43Z" transform="translate(-66.83 -25.13)"/><path class="cls-14" d="M108.45,178.17a3.56,3.56,0,0,0-.92-1.16,10.72,10.72,0,0,0-1.27.63,3,3,0,0,0,.3.63c.65,1,3,1.74,3,1.74S109.29,179.85,108.45,178.17Z" transform="translate(-66.83 -25.13)"/><polygon class="cls-14" points="56.8 146.77 65.86 145.85 61.13 150.47 63.67 146.77 56.8 146.77"/><polygon class="cls-14" points="61.82 151.36 70.34 152.11 62.58 156.07 67.47 152.74 61.82 151.36"/><polygon class="cls-14" points="63.28 156.97 68.11 158.93 66.42 159.28 63.28 156.97"/><polygon class="cls-14" points="56.08 142 54.85 145.75 57.88 141.25 56.08 142"/><path class="cls-13" d="M95,205.24,70,190.82c-2.62-1.52-2.29-4.18.74-5.93l43.94-25.37c3-1.75,7.66-1.94,10.28-.43l25,14.42c2.62,1.51,2.29,4.18-.74,5.93l-43.94,25.37C102.25,206.56,97.63,206.75,95,205.24Z" transform="translate(-66.83 -25.13)"/><rect class="cls-13" x="83.31" y="149.93" width="1.59" height="1.22"/><rect class="cls-13" x="1.44" y="161.88" width="2.03" height="1.44"/><path class="cls-14" d="M95,204.09,70,189.67c-2.62-1.51-2.29-4.18.74-5.93l43.94-25.37c3-1.75,7.66-1.94,10.28-.43l25,14.42c2.62,1.51,2.29,4.18-.74,5.93l-43.94,25.37C102.25,205.41,97.63,205.6,95,204.09Z" transform="translate(-66.83 -25.13)"/><path class="cls-7" d="M96.36,203,72,188.89c-2-1.15-1.74-3.17.56-4.49L116,159.33c2.3-1.33,5.79-1.47,7.78-.32l24.36,14.06c2,1.15,1.74,3.17-.56,4.49l-43.41,25.07C101.84,204,98.35,204.1,96.36,203Zm26.87-43.64a7.58,7.58,0,0,0-6.8.28L73,184.66c-2,1.16-2.23,2.92-.49,3.92l24.36,14.07a7.58,7.58,0,0,0,6.8-.28L147.1,177.3c2-1.16,2.23-2.92.49-3.92Z" transform="translate(-66.83 -25.13)"/><path class="cls-7" d="M118.21,186.92c2-1,3.08-2.15,3.92-2.47l14.81-3-6-2.39,9.1-4.35-11.09-1,5.92-5.68-11.51.95L126,163.6l-12.25,5.09a13.22,13.22,0,0,0-4.14.5c-2.48.75-3.14,1.59-3.14,1.59s1.42.8,2.1,1.26a9.67,9.67,0,0,1-4.14,2c-1.38.31-3.93.42-7.31,1.08s-1.88,1.8-.89,2.2a2.37,2.37,0,0,1,1.24.86,6.93,6.93,0,0,0-3.29.48c-1.37.54-.49,1.41,0,1.9,0,0-1,.58-.6,1s.26,1.22-1.78,1.11a15.94,15.94,0,0,0-5.33.49c-2.2.51-3.58,2-3.6,2.65s3.87,2.59,6.29,3.54a13.82,13.82,0,0,0,2.67.7,10.29,10.29,0,0,1-1,1,28.5,28.5,0,0,1-3.72,2.75s8.59-.76,12.85-.68a34,34,0,0,1,8,1l1.81-2c.57.33,1,.56,1,.56S112.23,189.89,118.21,186.92Z" transform="translate(-66.83 -25.13)"/><path class="cls-14" d="M118.69,184.38s-5.68,2.08-7.13,4.12-1,2.67-1,2.67.44-1.74,3.49-3.74C116.27,185.94,118.69,184.38,118.69,184.38Z" transform="translate(-66.83 -25.13)"/><path class="cls-14" d="M93.37,183.35a19,19,0,0,0-4.69-.12,9.13,9.13,0,0,0-3.75,1.3,16.27,16.27,0,0,1,4.69-.86A21.62,21.62,0,0,0,93.37,183.35Z" transform="translate(-66.83 -25.13)"/><path class="cls-14" d="M93.61,184s-2.68.18-4.5.37a11,11,0,0,0-3.68,1.26,36.52,36.52,0,0,1,4.7-.79A13,13,0,0,0,93.61,184Z" transform="translate(-66.83 -25.13)"/><path class="cls-14" d="M94.53,185a8.34,8.34,0,0,1-2.77.49,18.39,18.39,0,0,0-3.79.64,25.74,25.74,0,0,0,4.34-.32A10.7,10.7,0,0,0,94.53,185Z" transform="translate(-66.83 -25.13)"/><path class="cls-14" d="M115.61,169.74c.39.55,3.61,4,5.16,6.91a23,23,0,0,1,2,6.64,11.88,11.88,0,0,0-.68-6.95C120.47,172.7,115.61,169.74,115.61,169.74Z" transform="translate(-66.83 -25.13)"/><path class="cls-14" d="M117.66,180c-.47.1-7,3-8.42,6.24s.25,5,.25,5a10.78,10.78,0,0,1,1.65-6.1C113,182.5,117.66,180,117.66,180Z" transform="translate(-66.83 -25.13)"/><path class="cls-14" d="M95.12,180.49c-.6-.3,1,1.65,1.41,1.81S97.63,181.74,95.12,180.49Z" transform="translate(-66.83 -25.13)"/><path class="cls-14" d="M108.58,172s6.47,4.43,5.86,6.41c-.75,2.43-6.37,3.77-7,6.65a3.92,3.92,0,0,0,1.72,4.27s-1.63-3.92.6-5.86,6.27-3.95,5.84-5.71C115,175.55,111,172.72,108.58,172Z" transform="translate(-66.83 -25.13)"/><path class="cls-14" d="M90.91,189.87a39.37,39.37,0,0,0,7.11.21c3-.29,9.49-2.67,9.49-2.67l.34.41a52.25,52.25,0,0,1-9.35,3,44,44,0,0,1-7.89.43Z" transform="translate(-66.83 -25.13)"/><path class="cls-14" d="M108.45,175.93a3.61,3.61,0,0,0-.92-1.17,10.77,10.77,0,0,0-1.27.64,3,3,0,0,0,.3.63c.65,1.05,3,1.74,3,1.74S109.29,177.61,108.45,175.93Z" transform="translate(-66.83 -25.13)"/><polygon class="cls-14" points="56.8 144.53 65.86 143.61 61.13 148.23 63.67 144.53 56.8 144.53"/><polygon class="cls-14" points="61.82 149.12 70.34 149.87 62.58 153.83 67.47 150.5 61.82 149.12"/><polygon class="cls-14" points="63.28 154.72 68.11 156.69 66.42 157.04 63.28 154.72"/><polygon class="cls-14" points="56.08 139.76 54.85 143.51 57.88 139.01 56.08 139.76"/><path class="cls-13" d="M95,202.85,70,188.44c-2.62-1.52-2.29-4.19.74-5.94l43.94-25.37c3-1.74,7.66-1.94,10.28-.42l25,14.42c2.62,1.51,2.29,4.18-.74,5.93l-43.94,25.37C102.25,204.18,97.63,204.37,95,202.85Z" transform="translate(-66.83 -25.13)"/><rect class="cls-13" x="83.31" y="147.54" width="1.59" height="1.21"/><rect class="cls-13" x="1.44" y="159.5" width="2.03" height="1.44"/><path class="cls-14" d="M95,201.7,70,187.29c-2.62-1.52-2.29-4.19.74-5.93L114.71,156c3-1.74,7.66-1.94,10.28-.42L150,170c2.62,1.51,2.29,4.18-.74,5.93l-43.94,25.37C102.25,203,97.63,203.22,95,201.7Z" transform="translate(-66.83 -25.13)"/><path class="cls-7" d="M96.36,200.57,72,186.5c-2-1.15-1.74-3.16.56-4.49L116,157c2.3-1.33,5.79-1.47,7.78-.32l24.36,14.06c2,1.15,1.74,3.16-.56,4.49l-43.41,25.06C101.84,201.57,98.35,201.72,96.36,200.57Zm26.87-43.64a7.55,7.55,0,0,0-6.8.28L73,182.27c-2,1.16-2.23,2.93-.49,3.93l24.36,14.06a7.55,7.55,0,0,0,6.8-.28l43.41-25.06c2-1.16,2.23-2.92.49-3.93Z" transform="translate(-66.83 -25.13)"/><path class="cls-7" d="M118.21,184.53c2-1,3.08-2.14,3.92-2.46l14.81-3-6-2.38,9.1-4.35-11.09-1,5.92-5.67-11.51.95,2.69-5.35-12.25,5.1a13.19,13.19,0,0,0-4.14.49c-2.48.76-3.14,1.59-3.14,1.59s1.42.81,2.1,1.27a9.55,9.55,0,0,1-4.14,2c-1.38.32-3.93.42-7.31,1.08s-1.88,1.81-.89,2.2a2.41,2.41,0,0,1,1.24.87,6.79,6.79,0,0,0-3.29.48c-1.37.54-.49,1.41,0,1.9,0,0-1,.58-.6,1s.26,1.22-1.78,1.11a16,16,0,0,0-5.33.5c-2.2.51-3.58,1.94-3.6,2.64S86.8,186,89.22,187a13.82,13.82,0,0,0,2.67.7,10.29,10.29,0,0,1-1,1,28.5,28.5,0,0,1-3.72,2.75s8.59-.77,12.85-.68a33.37,33.37,0,0,1,8,1l1.81-2c.57.33,1,.56,1,.56S112.23,187.51,118.21,184.53Z" transform="translate(-66.83 -25.13)"/><path class="cls-14" d="M118.69,182s-5.68,2.07-7.13,4.11-1,2.67-1,2.67.44-1.73,3.49-3.73C116.27,183.56,118.69,182,118.69,182Z" transform="translate(-66.83 -25.13)"/><path class="cls-14" d="M93.37,181a19.25,19.25,0,0,0-4.69-.13,9.06,9.06,0,0,0-3.75,1.31,16.27,16.27,0,0,1,4.69-.86A21.62,21.62,0,0,0,93.37,181Z" transform="translate(-66.83 -25.13)"/><path class="cls-14" d="M93.61,181.61s-2.68.17-4.5.36a11.1,11.1,0,0,0-3.68,1.27,34.56,34.56,0,0,1,4.7-.79A13,13,0,0,0,93.61,181.61Z" transform="translate(-66.83 -25.13)"/><path class="cls-14" d="M94.53,182.58a8.34,8.34,0,0,1-2.77.49,18.39,18.39,0,0,0-3.79.64,25.74,25.74,0,0,0,4.34-.32A10.7,10.7,0,0,0,94.53,182.58Z" transform="translate(-66.83 -25.13)"/><path class="cls-14" d="M115.61,167.36c.39.55,3.61,4,5.16,6.9a23,23,0,0,1,2,6.64,11.85,11.85,0,0,0-.68-6.94C120.47,170.32,115.61,167.36,115.61,167.36Z" transform="translate(-66.83 -25.13)"/><path class="cls-14" d="M117.66,177.65c-.47.1-7,3-8.42,6.23s.25,5,.25,5a10.78,10.78,0,0,1,1.65-6.1C113,180.12,117.66,177.65,117.66,177.65Z" transform="translate(-66.83 -25.13)"/><path class="cls-14" d="M95.12,178.11c-.6-.3,1,1.64,1.41,1.81S97.63,179.36,95.12,178.11Z" transform="translate(-66.83 -25.13)"/><path class="cls-14" d="M108.58,169.66s6.47,4.43,5.86,6.41c-.75,2.43-6.37,3.76-7,6.65a3.92,3.92,0,0,0,1.72,4.27s-1.63-3.92.6-5.86,6.27-4,5.84-5.71C115,173.17,111,170.34,108.58,169.66Z" transform="translate(-66.83 -25.13)"/><path class="cls-14" d="M90.91,187.48a39,39,0,0,0,7.11.22c3-.3,9.49-2.67,9.49-2.67l.34.41a51.69,51.69,0,0,1-9.35,3,42.92,42.92,0,0,1-7.89.43Z" transform="translate(-66.83 -25.13)"/><path class="cls-14" d="M108.45,173.55a3.61,3.61,0,0,0-.92-1.17,10.77,10.77,0,0,0-1.27.64,3.52,3.52,0,0,0,.3.63c.65,1,3,1.74,3,1.74S109.29,175.23,108.45,173.55Z" transform="translate(-66.83 -25.13)"/><polygon class="cls-14" points="56.8 142.15 65.86 141.23 61.13 145.84 63.67 142.15 56.8 142.15"/><polygon class="cls-14" points="61.82 146.74 70.34 147.49 62.58 151.44 67.47 148.12 61.82 146.74"/><polygon class="cls-14" points="63.28 152.34 68.11 154.31 66.42 154.65 63.28 152.34"/><polygon class="cls-14" points="56.08 137.38 54.85 141.13 57.88 136.63 56.08 137.38"/><path class="cls-13" d="M95,200.61,70,186.19c-2.62-1.51-2.29-4.18.74-5.93l43.94-25.37c3-1.75,7.66-1.94,10.28-.42l25,14.41c2.62,1.52,2.29,4.19-.74,5.94l-43.94,25.37C102.25,201.93,97.63,202.13,95,200.61Z" transform="translate(-66.83 -25.13)"/><rect class="cls-13" x="83.31" y="145.3" width="1.59" height="1.22"/><rect class="cls-13" x="1.44" y="157.26" width="2.03" height="1.44"/><path class="cls-14" d="M95,199.46,70,185c-2.62-1.51-2.29-4.18.74-5.93l43.94-25.37c3-1.75,7.66-1.94,10.28-.42l25,14.42c2.62,1.51,2.29,4.18-.74,5.93L105.28,199C102.25,200.78,97.63,201,95,199.46Z" transform="translate(-66.83 -25.13)"/><path class="cls-7" d="M96.36,198.33,72,184.26c-2-1.15-1.74-3.16.56-4.49L116,154.71c2.3-1.33,5.79-1.48,7.78-.33l24.36,14.07c2,1.15,1.74,3.16-.56,4.49L104.14,198C101.84,199.33,98.35,199.47,96.36,198.33Zm26.87-43.64a7.55,7.55,0,0,0-6.8.28L73,180c-2,1.16-2.23,2.92-.49,3.93L96.89,198a7.55,7.55,0,0,0,6.8-.28l43.41-25.06c2-1.16,2.23-2.92.49-3.93Z" transform="translate(-66.83 -25.13)"/><path class="cls-7" d="M118.21,182.29c2-1,3.08-2.14,3.92-2.47l14.81-3-6-2.39,9.1-4.34-11.09-1,5.92-5.68-11.51,1L126,159l-12.25,5.1a12.9,12.9,0,0,0-4.14.49c-2.48.75-3.14,1.59-3.14,1.59s1.42.81,2.1,1.26a9.55,9.55,0,0,1-4.14,2c-1.38.32-3.93.42-7.31,1.08s-1.88,1.81-.89,2.2a2.41,2.41,0,0,1,1.24.87,6.85,6.85,0,0,0-3.29.47c-1.37.55-.49,1.42,0,1.91,0,0-1,.58-.6,1s.26,1.22-1.78,1.11a16,16,0,0,0-5.33.5c-2.2.51-3.58,1.94-3.6,2.64s3.87,2.59,6.29,3.54a13.16,13.16,0,0,0,2.67.71,9.26,9.26,0,0,1-1,1,28.06,28.06,0,0,1-3.72,2.76s8.59-.77,12.85-.68a33.37,33.37,0,0,1,8,1l1.81-2,1,.56S112.23,185.27,118.21,182.29Z" transform="translate(-66.83 -25.13)"/><path class="cls-14" d="M118.69,179.75s-5.68,2.08-7.13,4.12-1,2.67-1,2.67.44-1.73,3.49-3.74Z" transform="translate(-66.83 -25.13)"/><path class="cls-14" d="M93.37,178.73a18.69,18.69,0,0,0-4.69-.13,9.06,9.06,0,0,0-3.75,1.31,16.48,16.48,0,0,1,4.69-.87A21.15,21.15,0,0,0,93.37,178.73Z" transform="translate(-66.83 -25.13)"/><path class="cls-14" d="M93.61,179.36s-2.68.18-4.5.37A11,11,0,0,0,85.43,181a35.57,35.57,0,0,1,4.7-.78A12.82,12.82,0,0,0,93.61,179.36Z" transform="translate(-66.83 -25.13)"/><path class="cls-14" d="M94.53,180.34a8.22,8.22,0,0,1-2.77.48,19.2,19.2,0,0,0-3.79.64,25.4,25.4,0,0,0,4.34-.31A11.43,11.43,0,0,0,94.53,180.34Z" transform="translate(-66.83 -25.13)"/><path class="cls-14" d="M115.61,165.12c.39.54,3.61,4,5.16,6.9a23,23,0,0,1,2,6.64,11.85,11.85,0,0,0-.68-6.94C120.47,168.08,115.61,165.12,115.61,165.12Z" transform="translate(-66.83 -25.13)"/><path class="cls-14" d="M117.66,175.4c-.47.11-7,3-8.42,6.24s.25,5,.25,5a10.78,10.78,0,0,1,1.65-6.1C113,177.88,117.66,175.4,117.66,175.4Z" transform="translate(-66.83 -25.13)"/><path class="cls-14" d="M95.12,175.87c-.6-.3,1,1.64,1.41,1.81S97.63,177.12,95.12,175.87Z" transform="translate(-66.83 -25.13)"/><path class="cls-14" d="M108.58,167.41s6.47,4.43,5.86,6.41c-.75,2.44-6.37,3.77-7,6.65a3.91,3.91,0,0,0,1.72,4.27s-1.63-3.91.6-5.85,6.27-4,5.84-5.71C115,170.93,111,168.1,108.58,167.41Z" transform="translate(-66.83 -25.13)"/><path class="cls-14" d="M90.91,185.24a40,40,0,0,0,7.11.22c3-.3,9.49-2.67,9.49-2.67l.34.41a51.69,51.69,0,0,1-9.35,3,44,44,0,0,1-7.89.43Z" transform="translate(-66.83 -25.13)"/><path class="cls-14" d="M108.45,171.3a3.67,3.67,0,0,0-.92-1.16,9.43,9.43,0,0,0-1.27.64,3.52,3.52,0,0,0,.3.63c.65,1,3,1.74,3,1.74S109.29,173,108.45,171.3Z" transform="translate(-66.83 -25.13)"/><polygon class="cls-14" points="56.8 139.91 65.86 138.99 61.13 143.6 63.67 139.9 56.8 139.91"/><polygon class="cls-14" points="61.82 144.5 70.34 145.25 62.58 149.2 67.47 145.87 61.82 144.5"/><polygon class="cls-14" points="63.28 150.1 68.11 152.07 66.42 152.41 63.28 150.1"/><polygon class="cls-14" points="56.08 135.13 54.85 138.89 57.88 134.38 56.08 135.13"/><path class="cls-13" d="M95,198.35,70,183.93c-2.62-1.51-2.29-4.18.74-5.93l43.94-25.37c3-1.75,7.66-1.94,10.28-.43l25,14.42c2.62,1.52,2.29,4.19-.74,5.93l-43.94,25.37C102.25,199.67,97.63,199.86,95,198.35Z" transform="translate(-66.83 -25.13)"/><rect class="cls-13" x="83.31" y="143.04" width="1.59" height="1.21"/><rect class="cls-13" x="1.44" y="155" width="2.03" height="1.44"/><path class="cls-14" d="M95,197.2,70,182.78c-2.62-1.51-2.29-4.18.74-5.93l43.94-25.37c3-1.75,7.66-1.94,10.28-.43l25,14.42c2.62,1.52,2.29,4.19-.74,5.93l-43.94,25.38C102.25,198.52,97.63,198.71,95,197.2Z" transform="translate(-66.83 -25.13)"/><path class="cls-7" d="M96.36,196.06,72,182c-2-1.15-1.74-3.16.56-4.49L116,152.45c2.3-1.33,5.79-1.48,7.78-.33l24.36,14.07c2,1.15,1.74,3.16-.56,4.49l-43.41,25.06C101.84,197.07,98.35,197.21,96.36,196.06Zm26.87-43.63a7.55,7.55,0,0,0-6.8.28L73,177.77c-2,1.16-2.23,2.92-.49,3.93l24.36,14.06a7.55,7.55,0,0,0,6.8-.28l43.41-25.06c2-1.16,2.23-2.93.49-3.93Z" transform="translate(-66.83 -25.13)"/><path class="cls-7" d="M118.21,180c2-1,3.08-2.14,3.92-2.47l14.81-3-6-2.39,9.1-4.34-11.09-1,5.92-5.68-11.51,1,2.69-5.35-12.25,5.09a13.22,13.22,0,0,0-4.14.5c-2.48.75-3.14,1.59-3.14,1.59s1.42.81,2.1,1.26a9.67,9.67,0,0,1-4.14,2c-1.38.32-3.93.42-7.31,1.08s-1.88,1.81-.89,2.2a2.37,2.37,0,0,1,1.24.86,6.93,6.93,0,0,0-3.29.48c-1.37.55-.49,1.41,0,1.91,0,0-1,.58-.6,1s.26,1.22-1.78,1.11a15.94,15.94,0,0,0-5.33.49c-2.2.51-3.58,1.95-3.6,2.65s3.87,2.59,6.29,3.54a12.51,12.51,0,0,0,2.67.7,10.29,10.29,0,0,1-1,1,28.06,28.06,0,0,1-3.72,2.76s8.59-.77,12.85-.69a33.63,33.63,0,0,1,8,1l1.81-2,1,.56S112.23,183,118.21,180Z" transform="translate(-66.83 -25.13)"/><path class="cls-14" d="M118.69,177.49s-5.68,2.08-7.13,4.12-1,2.67-1,2.67.44-1.73,3.49-3.74Z" transform="translate(-66.83 -25.13)"/><path class="cls-14" d="M93.37,176.47a18.69,18.69,0,0,0-4.69-.13,9.06,9.06,0,0,0-3.75,1.31,16.48,16.48,0,0,1,4.69-.87A21.15,21.15,0,0,0,93.37,176.47Z" transform="translate(-66.83 -25.13)"/><path class="cls-14" d="M93.61,177.1s-2.68.18-4.5.37a11,11,0,0,0-3.68,1.26,36.52,36.52,0,0,1,4.7-.79A12.61,12.61,0,0,0,93.61,177.1Z" transform="translate(-66.83 -25.13)"/><path class="cls-14" d="M94.53,178.08a8.22,8.22,0,0,1-2.77.48,19.2,19.2,0,0,0-3.79.64,25.74,25.74,0,0,0,4.34-.32A11.07,11.07,0,0,0,94.53,178.08Z" transform="translate(-66.83 -25.13)"/><path class="cls-14" d="M115.61,162.86c.39.54,3.61,4,5.16,6.9a23,23,0,0,1,2,6.64,11.85,11.85,0,0,0-.68-6.94C120.47,165.82,115.61,162.86,115.61,162.86Z" transform="translate(-66.83 -25.13)"/><path class="cls-14" d="M117.66,173.14c-.47.11-7,3-8.42,6.24s.25,5,.25,5a10.76,10.76,0,0,1,1.65-6.09C113,175.62,117.66,173.14,117.66,173.14Z" transform="translate(-66.83 -25.13)"/><path class="cls-14" d="M95.12,173.61c-.6-.3,1,1.64,1.41,1.81S97.63,174.86,95.12,173.61Z" transform="translate(-66.83 -25.13)"/><path class="cls-14" d="M108.58,165.15s6.47,4.43,5.86,6.41c-.75,2.44-6.37,3.77-7,6.65a3.91,3.91,0,0,0,1.72,4.27s-1.63-3.91.6-5.85,6.27-4,5.84-5.71C115,168.67,111,165.84,108.58,165.15Z" transform="translate(-66.83 -25.13)"/><path class="cls-14" d="M90.91,183a40,40,0,0,0,7.11.22c3-.3,9.49-2.67,9.49-2.67l.34.4a52.25,52.25,0,0,1-9.35,3,44,44,0,0,1-7.89.43Z" transform="translate(-66.83 -25.13)"/><path class="cls-14" d="M108.45,169a3.67,3.67,0,0,0-.92-1.16,10.72,10.72,0,0,0-1.27.63,3,3,0,0,0,.3.63c.65,1.05,3,1.74,3,1.74S109.29,170.72,108.45,169Z" transform="translate(-66.83 -25.13)"/><polygon class="cls-14" points="56.8 137.65 65.86 136.72 61.13 141.34 63.67 137.64 56.8 137.65"/><polygon class="cls-14" points="61.82 142.23 70.34 142.99 62.58 146.94 67.47 143.61 61.82 142.23"/><polygon class="cls-14" points="63.28 147.84 68.11 149.8 66.42 150.15 63.28 147.84"/><polygon class="cls-14" points="56.08 132.87 54.85 136.62 57.88 132.12 56.08 132.87"/><path class="cls-13" d="M95,196.11,70,181.69c-2.62-1.51-2.29-4.18.74-5.93l43.94-25.37c3-1.75,7.66-1.94,10.28-.43l25,14.42c2.62,1.51,2.29,4.18-.74,5.93l-43.94,25.37C102.25,197.43,97.63,197.62,95,196.11Z" transform="translate(-66.83 -25.13)"/><rect class="cls-13" x="83.31" y="140.8" width="1.59" height="1.22"/><rect class="cls-13" x="1.44" y="152.75" width="2.03" height="1.44"/><path class="cls-14" d="M95,195,70,180.54c-2.62-1.51-2.29-4.18.74-5.93l43.94-25.37c3-1.75,7.66-1.94,10.28-.43l25,14.42c2.62,1.52,2.29,4.18-.74,5.93l-43.94,25.37C102.25,196.28,97.63,196.47,95,195Z" transform="translate(-66.83 -25.13)"/><path class="cls-7" d="M96.36,193.82,72,179.76c-2-1.15-1.74-3.17.56-4.49L116,150.2c2.3-1.32,5.79-1.47,7.78-.32l24.36,14.06c2,1.15,1.74,3.17-.56,4.5L104.14,193.5C101.84,194.83,98.35,195,96.36,193.82Zm26.87-43.64a7.58,7.58,0,0,0-6.8.28L73,175.53c-2,1.16-2.23,2.92-.49,3.92l24.36,14.07a7.58,7.58,0,0,0,6.8-.28l43.41-25.07c2-1.16,2.23-2.92.49-3.92Z" transform="translate(-66.83 -25.13)"/><path class="cls-7" d="M118.21,177.79c2-1,3.08-2.15,3.92-2.47l14.81-3-6-2.39,9.1-4.35-11.09-1,5.92-5.68-11.51.95,2.69-5.34-12.25,5.09a13.22,13.22,0,0,0-4.14.5c-2.48.75-3.14,1.59-3.14,1.59s1.42.81,2.1,1.26a9.67,9.67,0,0,1-4.14,2c-1.38.31-3.93.42-7.31,1.08s-1.88,1.8-.89,2.2a2.37,2.37,0,0,1,1.24.86,6.93,6.93,0,0,0-3.29.48c-1.37.55-.49,1.41,0,1.9,0,0-1,.58-.6,1s.26,1.22-1.78,1.11a15.94,15.94,0,0,0-5.33.49c-2.2.51-3.58,2-3.6,2.65s3.87,2.59,6.29,3.54a13.82,13.82,0,0,0,2.67.7,10.29,10.29,0,0,1-1,1,28.5,28.5,0,0,1-3.72,2.75s8.59-.76,12.85-.68a34,34,0,0,1,8,1l1.81-2c.57.33,1,.56,1,.56S112.23,180.76,118.21,177.79Z" transform="translate(-66.83 -25.13)"/><path class="cls-14" d="M118.69,175.25s-5.68,2.08-7.13,4.12-1,2.67-1,2.67.44-1.74,3.49-3.74C116.27,176.81,118.69,175.25,118.69,175.25Z" transform="translate(-66.83 -25.13)"/><path class="cls-14" d="M93.37,174.23a18.69,18.69,0,0,0-4.69-.13,9.13,9.13,0,0,0-3.75,1.3,16.67,16.67,0,0,1,4.69-.86A22.42,22.42,0,0,0,93.37,174.23Z" transform="translate(-66.83 -25.13)"/><path class="cls-14" d="M93.61,174.86s-2.68.18-4.5.37a11,11,0,0,0-3.68,1.26,36.52,36.52,0,0,1,4.7-.79A12.61,12.61,0,0,0,93.61,174.86Z" transform="translate(-66.83 -25.13)"/><path class="cls-14" d="M94.53,175.84a8.57,8.57,0,0,1-2.77.48A18.39,18.39,0,0,0,88,177a25.74,25.74,0,0,0,4.34-.32A11.07,11.07,0,0,0,94.53,175.84Z" transform="translate(-66.83 -25.13)"/><path class="cls-14" d="M115.61,160.61c.39.55,3.61,4,5.16,6.91a23,23,0,0,1,2,6.64,11.88,11.88,0,0,0-.68-6.95C120.47,163.57,115.61,160.61,115.61,160.61Z" transform="translate(-66.83 -25.13)"/><path class="cls-14" d="M117.66,170.9c-.47.1-7,3-8.42,6.24s.25,5,.25,5a10.76,10.76,0,0,1,1.65-6.09C113,173.38,117.66,170.9,117.66,170.9Z" transform="translate(-66.83 -25.13)"/><path class="cls-14" d="M95.12,171.36c-.6-.3,1,1.65,1.41,1.81S97.63,172.62,95.12,171.36Z" transform="translate(-66.83 -25.13)"/><path class="cls-14" d="M108.58,162.91s6.47,4.43,5.86,6.41c-.75,2.44-6.37,3.77-7,6.65a3.92,3.92,0,0,0,1.72,4.27s-1.63-3.92.6-5.86,6.27-3.95,5.84-5.71C115,166.42,111,163.59,108.58,162.91Z" transform="translate(-66.83 -25.13)"/><path class="cls-14" d="M90.91,180.74A39.37,39.37,0,0,0,98,181c3-.29,9.49-2.67,9.49-2.67l.34.41a52.25,52.25,0,0,1-9.35,3,44,44,0,0,1-7.89.43Z" transform="translate(-66.83 -25.13)"/><path class="cls-14" d="M108.45,166.8a3.46,3.46,0,0,0-.92-1.16,9.38,9.38,0,0,0-1.27.63,3,3,0,0,0,.3.63c.65,1,3,1.74,3,1.74S109.29,168.48,108.45,166.8Z" transform="translate(-66.83 -25.13)"/><polygon class="cls-14" points="56.8 135.4 65.86 134.48 61.13 139.1 63.67 135.4 56.8 135.4"/><polygon class="cls-14" points="61.82 139.99 70.34 140.74 62.58 144.7 67.47 141.37 61.82 139.99"/><polygon class="cls-14" points="63.28 145.6 68.11 147.56 66.42 147.91 63.28 145.6"/><polygon class="cls-14" points="56.08 130.63 54.85 134.38 57.88 129.88 56.08 130.63"/><path class="cls-13" d="M95,193.73,70,179.31c-2.62-1.52-2.29-4.19.74-5.93L114.71,148c3-1.74,7.66-1.94,10.28-.42L150,162c2.62,1.51,2.29,4.18-.74,5.93L105.28,193.3C102.25,195.05,97.63,195.24,95,193.73Z" transform="translate(-66.83 -25.13)"/><rect class="cls-13" x="83.31" y="138.41" width="1.59" height="1.22"/><rect class="cls-13" x="1.44" y="150.37" width="2.03" height="1.44"/><path class="cls-14" d="M95,192.58,70,178.16c-2.62-1.52-2.29-4.19.74-5.93l43.94-25.37c3-1.75,7.66-1.94,10.28-.43l25,14.42c2.62,1.51,2.29,4.18-.74,5.93l-43.94,25.37C102.25,193.9,97.63,194.09,95,192.58Z" transform="translate(-66.83 -25.13)"/><path class="cls-7" d="M96.36,191.44,72,177.37c-2-1.15-1.74-3.16.56-4.49L116,147.82c2.3-1.33,5.79-1.47,7.78-.32l24.36,14.06c2,1.15,1.74,3.17-.56,4.49l-43.41,25.07C101.84,192.44,98.35,192.59,96.36,191.44Zm26.87-43.64a7.58,7.58,0,0,0-6.8.28L73,173.15c-2,1.16-2.23,2.92-.49,3.92l24.36,14.07a7.59,7.59,0,0,0,6.8-.29l43.41-25.06c2-1.16,2.23-2.92.49-3.93Z" transform="translate(-66.83 -25.13)"/><path class="cls-7" d="M118.21,175.4c2-1,3.08-2.14,3.92-2.46l14.81-3.05-6-2.38,9.1-4.35-11.09-1,5.92-5.68-11.51,1,2.69-5.34-12.25,5.09a13.22,13.22,0,0,0-4.14.5c-2.48.75-3.14,1.59-3.14,1.59s1.42.8,2.1,1.26a9.67,9.67,0,0,1-4.14,2c-1.38.31-3.93.41-7.31,1.08s-1.88,1.8-.89,2.19a2.41,2.41,0,0,1,1.24.87,6.79,6.79,0,0,0-3.29.48c-1.37.54-.49,1.41,0,1.9,0,0-1,.58-.6,1s.26,1.22-1.78,1.11a16,16,0,0,0-5.33.5c-2.2.51-3.58,1.94-3.6,2.64s3.87,2.6,6.29,3.55a13.82,13.82,0,0,0,2.67.7,10.29,10.29,0,0,1-1,1,28.5,28.5,0,0,1-3.72,2.75s8.59-.76,12.85-.68a34,34,0,0,1,8,1l1.81-2c.57.33,1,.56,1,.56S112.23,178.38,118.21,175.4Z" transform="translate(-66.83 -25.13)"/><path class="cls-14" d="M118.69,172.87s-5.68,2.07-7.13,4.11-1,2.67-1,2.67.44-1.73,3.49-3.73C116.27,174.43,118.69,172.87,118.69,172.87Z" transform="translate(-66.83 -25.13)"/><path class="cls-14" d="M93.37,171.84a19.25,19.25,0,0,0-4.69-.13A9.06,9.06,0,0,0,84.93,173a16.27,16.27,0,0,1,4.69-.86A21.62,21.62,0,0,0,93.37,171.84Z" transform="translate(-66.83 -25.13)"/><path class="cls-14" d="M93.61,172.48s-2.68.18-4.5.37a11,11,0,0,0-3.68,1.26,34.56,34.56,0,0,1,4.7-.79A13,13,0,0,0,93.61,172.48Z" transform="translate(-66.83 -25.13)"/><path class="cls-14" d="M94.53,173.45a8.34,8.34,0,0,1-2.77.49,18.39,18.39,0,0,0-3.79.64,25.74,25.74,0,0,0,4.34-.32A10.7,10.7,0,0,0,94.53,173.45Z" transform="translate(-66.83 -25.13)"/><path class="cls-14" d="M115.61,158.23c.39.55,3.61,4,5.16,6.9a23,23,0,0,1,2,6.64,11.85,11.85,0,0,0-.68-6.94C120.47,161.19,115.61,158.23,115.61,158.23Z" transform="translate(-66.83 -25.13)"/><path class="cls-14" d="M117.66,168.52c-.47.1-7,3-8.42,6.23s.25,5,.25,5a10.78,10.78,0,0,1,1.65-6.1C113,171,117.66,168.52,117.66,168.52Z" transform="translate(-66.83 -25.13)"/><path class="cls-14" d="M95.12,169c-.6-.3,1,1.65,1.41,1.81S97.63,170.23,95.12,169Z" transform="translate(-66.83 -25.13)"/><path class="cls-14" d="M108.58,160.53s6.47,4.43,5.86,6.41c-.75,2.43-6.37,3.76-7,6.65a3.92,3.92,0,0,0,1.72,4.27s-1.63-3.92.6-5.86,6.27-4,5.84-5.71C115,164,111,161.21,108.58,160.53Z" transform="translate(-66.83 -25.13)"/><path class="cls-14" d="M90.91,178.36a39.37,39.37,0,0,0,7.11.21c3-.3,9.49-2.67,9.49-2.67l.34.41a51.69,51.69,0,0,1-9.35,3,42.92,42.92,0,0,1-7.89.43Z" transform="translate(-66.83 -25.13)"/><path class="cls-14" d="M108.45,164.42a3.61,3.61,0,0,0-.92-1.17,10.77,10.77,0,0,0-1.27.64,3,3,0,0,0,.3.63c.65,1,3,1.74,3,1.74S109.29,166.1,108.45,164.42Z" transform="translate(-66.83 -25.13)"/><polygon class="cls-14" points="56.8 133.02 65.86 132.1 61.13 136.72 63.67 133.02 56.8 133.02"/><polygon class="cls-14" points="61.82 137.61 70.34 138.36 62.58 142.31 67.47 138.99 61.82 137.61"/><polygon class="cls-14" points="63.28 143.21 68.11 145.18 66.42 145.53 63.28 143.21"/><polygon class="cls-14" points="56.08 128.25 54.85 132 57.88 127.5 56.08 128.25"/><path class="cls-13" d="M95,191.48,70,177.06c-2.62-1.51-2.29-4.18.74-5.93l43.94-25.37c3-1.75,7.66-1.94,10.28-.42l25,14.42c2.62,1.51,2.29,4.18-.74,5.93l-43.94,25.37C102.25,192.81,97.63,193,95,191.48Z" transform="translate(-66.83 -25.13)"/><rect class="cls-13" x="83.31" y="136.17" width="1.59" height="1.21"/><rect class="cls-13" x="1.44" y="148.13" width="2.03" height="1.44"/><path class="cls-14" d="M95,190.33,70,175.91c-2.62-1.51-2.29-4.18.74-5.93l43.94-25.37c3-1.74,7.66-1.94,10.28-.42l25,14.42c2.62,1.51,2.29,4.18-.74,5.93l-43.94,25.37C102.25,191.66,97.63,191.85,95,190.33Z" transform="translate(-66.83 -25.13)"/><path class="cls-7" d="M96.36,189.2,72,175.13c-2-1.15-1.74-3.16.56-4.49L116,145.58c2.3-1.33,5.79-1.47,7.78-.32l24.36,14.06c2,1.15,1.74,3.16-.56,4.49l-43.41,25.06C101.84,190.2,98.35,190.35,96.36,189.2Zm26.87-43.64a7.55,7.55,0,0,0-6.8.28L73,170.9c-2,1.16-2.23,2.92-.49,3.93l24.36,14.06a7.55,7.55,0,0,0,6.8-.28l43.41-25.06c2-1.16,2.23-2.92.49-3.93Z" transform="translate(-66.83 -25.13)"/><path class="cls-7" d="M118.21,173.16c2-1,3.08-2.14,3.92-2.47l14.81-3-6-2.38,9.1-4.35-11.09-1,5.92-5.67-11.51.95,2.69-5.35-12.25,5.1a12.9,12.9,0,0,0-4.14.49c-2.48.76-3.14,1.59-3.14,1.59s1.42.81,2.1,1.26a9.44,9.44,0,0,1-4.14,2c-1.38.32-3.93.42-7.31,1.08s-1.88,1.81-.89,2.2a2.41,2.41,0,0,1,1.24.87,6.85,6.85,0,0,0-3.29.47c-1.37.55-.49,1.42,0,1.91,0,0-1,.58-.6,1s.26,1.22-1.78,1.11a16,16,0,0,0-5.33.5c-2.2.51-3.58,1.94-3.6,2.64s3.87,2.6,6.29,3.55a13.82,13.82,0,0,0,2.67.7,9.26,9.26,0,0,1-1,1,28.06,28.06,0,0,1-3.72,2.76s8.59-.77,12.85-.68a33.37,33.37,0,0,1,8,1l1.81-2,1,.56S112.23,176.14,118.21,173.16Z" transform="translate(-66.83 -25.13)"/><path class="cls-14" d="M118.69,170.63s-5.68,2.07-7.13,4.11-1,2.67-1,2.67.44-1.73,3.49-3.74Z" transform="translate(-66.83 -25.13)"/><path class="cls-14" d="M93.37,169.6a18.69,18.69,0,0,0-4.69-.13,9.06,9.06,0,0,0-3.75,1.31,16.48,16.48,0,0,1,4.69-.87A21.15,21.15,0,0,0,93.37,169.6Z" transform="translate(-66.83 -25.13)"/><path class="cls-14" d="M93.61,170.24s-2.68.17-4.5.36a11,11,0,0,0-3.68,1.26,35.57,35.57,0,0,1,4.7-.78A13,13,0,0,0,93.61,170.24Z" transform="translate(-66.83 -25.13)"/><path class="cls-14" d="M94.53,171.21a8.22,8.22,0,0,1-2.77.48,19.2,19.2,0,0,0-3.79.64,25.4,25.4,0,0,0,4.34-.31A10.7,10.7,0,0,0,94.53,171.21Z" transform="translate(-66.83 -25.13)"/><path class="cls-14" d="M115.61,156c.39.54,3.61,4,5.16,6.9a23,23,0,0,1,2,6.64,11.85,11.85,0,0,0-.68-6.94C120.47,159,115.61,156,115.61,156Z" transform="translate(-66.83 -25.13)"/><path class="cls-14" d="M117.66,166.28c-.47.1-7,3-8.42,6.23s.25,5,.25,5a10.78,10.78,0,0,1,1.65-6.1C113,168.75,117.66,166.28,117.66,166.28Z" transform="translate(-66.83 -25.13)"/><path class="cls-14" d="M95.12,166.74c-.6-.3,1,1.64,1.41,1.81S97.63,168,95.12,166.74Z" transform="translate(-66.83 -25.13)"/><path class="cls-14" d="M108.58,158.28s6.47,4.43,5.86,6.41c-.75,2.44-6.37,3.77-7,6.66a3.92,3.92,0,0,0,1.72,4.27s-1.63-3.92.6-5.86,6.27-4,5.84-5.71C115,161.8,111,159,108.58,158.28Z" transform="translate(-66.83 -25.13)"/><path class="cls-14" d="M90.91,176.11a40,40,0,0,0,7.11.22c3-.3,9.49-2.67,9.49-2.67l.34.41a51.69,51.69,0,0,1-9.35,3,42.92,42.92,0,0,1-7.89.43Z" transform="translate(-66.83 -25.13)"/><path class="cls-14" d="M108.45,162.18a3.61,3.61,0,0,0-.92-1.17,9.43,9.43,0,0,0-1.27.64,3.52,3.52,0,0,0,.3.63c.65,1,3,1.74,3,1.74S109.29,163.86,108.45,162.18Z" transform="translate(-66.83 -25.13)"/><polygon class="cls-14" points="56.8 130.78 65.86 129.86 61.13 134.47 63.67 130.78 56.8 130.78"/><polygon class="cls-14" points="61.82 135.37 70.34 136.12 62.58 140.07 67.47 136.74 61.82 135.37"/><polygon class="cls-14" points="63.28 140.97 68.11 142.94 66.42 143.28 63.28 140.97"/><polygon class="cls-14" points="56.08 126.01 54.85 129.76 57.88 125.25 56.08 126.01"/><path class="cls-13" d="M139,233.86l-25-14.42c-2.62-1.51-2.29-4.18.74-5.93l43.94-25.37c3-1.75,7.65-1.94,10.28-.42l25,14.41c2.62,1.52,2.29,4.19-.74,5.94l-43.94,25.37C146.22,235.18,141.6,235.38,139,233.86Z" transform="translate(-66.83 -25.13)"/><rect class="cls-13" x="127.28" y="178.55" width="1.59" height="1.22"/><rect class="cls-13" x="45.4" y="190.51" width="2.03" height="1.44"/><path class="cls-14" d="M139,232.71l-25-14.42c-2.62-1.51-2.29-4.18.74-5.93L158.68,187c3-1.75,7.65-1.94,10.28-.42l25,14.42c2.62,1.51,2.29,4.18-.74,5.93l-43.94,25.37C146.22,234,141.6,234.23,139,232.71Z" transform="translate(-66.83 -25.13)"/><path class="cls-10" d="M191.26,206.34c2.34-1.35,2.59-3.39.57-4.56l-24-13.88c-2-1.17-5.57-1-7.91.33l-30,17.31.05,0-13,7.5c-2.4,1.39-2.66,3.48-.58,4.68l23.52,13.58c2.08,1.2,5.71,1,8.11-.33l13-7.5.27.15Z" transform="translate(-66.83 -25.13)"/><path class="cls-15" d="M168.28,198a17.72,17.72,0,0,1-5.56.43c-2.88-.28-5.95-.34-6.83.11s-1.07,1.13-1.6,1.43-1.33.3-3.51.22-2.88.71-3,1.21.21,1.42-1.12,1.63c-1.91.29-2.77,0-4.11.37s-1.24,2.12-3.27,2.76c-2.47.79.06,2.29-.55,2.94-1.68,1.81-5.2,1.38-4.65,3,.32,1,3.24,3.49,2.66,4.1s5.19.95,8.2,2.05,4.52,4,7.51,3.14c3.39-1,1.07-3.13,4.8-3.53s5.75.42,7.23-.93c2.16-2-.72-2.55,1.86-3.95s3-1.06,4.32-1.95c2.37-1.61,1.14-2.4.9-3.27s.24-1.39,2.05-2.24a4.25,4.25,0,0,0,2.15-2.89Z" transform="translate(-66.83 -25.13)"/><path class="cls-16" d="M117.37,218l21.9,12.65c1.57-1.28,12-9.79,14.24-11.48,1.28-1,3.56-1.23,5.26-2a15.25,15.25,0,0,0,5.2-3.51c1.23-1.64-.67-4-.67-4l-9.75-5s-4.48-1-5.62-.62a31.34,31.34,0,0,0-6,2.73c-2.15,1.47-2.83,3.14-3.9,3.85-3.08,2-7.26,2.69-11.2,4C122.11,216.13,118.39,217.62,117.37,218Z" transform="translate(-66.83 -25.13)"/><path class="cls-17" d="M161.73,203.2s-3,2-4.48,2a18.49,18.49,0,0,1-3.7-.57s-1.25,1.67,2.36,3.75a11.44,11.44,0,0,0,7.39,1.28s-2.84-1.32-1.77-2.31,3.59-2,3.54-2.23A27.77,27.77,0,0,0,161.73,203.2Z" transform="translate(-66.83 -25.13)"/><path class="cls-18" d="M170.47,204.59c-3.05,1.75-7.05,2.29-8.95,1.19s-1-3.41,2.07-5.17,7-2.29,8.95-1.19S173.51,202.83,170.47,204.59Z" transform="translate(-66.83 -25.13)"/><path class="cls-15" d="M173.15,199.91a24.72,24.72,0,0,1-5.23.37,20.94,20.94,0,0,1-3.25-.71l-2.06,1s-1.25-1.6,4.35-3S173.15,199.91,173.15,199.91Z" transform="translate(-66.83 -25.13)"/><path class="cls-15" d="M172.46,199.37s-3.16,2.21-2,3.54-1.23,2.79-1.23,2.79,5.11-.08,6.5-3S172.46,199.37,172.46,199.37Z" transform="translate(-66.83 -25.13)"/><path class="cls-19" d="M178.59,207.43s-2,.92-2.68,1.2a4,4,0,0,1-3.2-.51s1,.88.9,1.37-1.29,1.42-1.29,1.42a6.91,6.91,0,0,1,2.72-.81c.81.15,2.16.58,2.16.58s-1.38-1-.92-1.48A18.09,18.09,0,0,1,178.59,207.43Z" transform="translate(-66.83 -25.13)"/><path class="cls-19" d="M161.57,192.93s-2,.92-2.69,1.2a4,4,0,0,1-3.19-.51s1,.89.9,1.38-1.29,1.41-1.29,1.41a6.77,6.77,0,0,1,2.71-.8c.82.15,2.16.58,2.16.58s-1.37-1-.91-1.49A18.09,18.09,0,0,1,161.57,192.93Z" transform="translate(-66.83 -25.13)"/><path class="cls-19" d="M138.58,205.75s-2,.93-2.68,1.2a4,4,0,0,1-3.2-.51s1,.89.9,1.38-1.28,1.41-1.28,1.41a6.88,6.88,0,0,1,2.71-.8c.82.15,2.16.58,2.16.58s-1.38-1-.92-1.49A18.88,18.88,0,0,1,138.58,205.75Z" transform="translate(-66.83 -25.13)"/><path class="cls-7" d="M155.84,222.58s-2,.92-2.69,1.2a3.93,3.93,0,0,1-3.19-.51s1,.89.9,1.38-1.29,1.41-1.29,1.41a6.77,6.77,0,0,1,2.71-.8c.82.15,2.16.58,2.16.58s-1.38-1-.91-1.49A18.09,18.09,0,0,1,155.84,222.58Z" transform="translate(-66.83 -25.13)"/><path class="cls-7" d="M146.5,200.11s-1,.46-1.34.6a2,2,0,0,1-1.6-.26s.51.44.45.69-.64.7-.64.7a3.49,3.49,0,0,1,1.35-.4c.41.08,1.08.29,1.08.29s-.69-.51-.45-.74A9,9,0,0,1,146.5,200.11Z" transform="translate(-66.83 -25.13)"/><path class="cls-19" d="M189.92,202.84s-1,.46-1.34.6a2,2,0,0,1-1.6-.26s.52.44.45.69-.64.71-.64.71a3.53,3.53,0,0,1,1.36-.41c.41.08,1.08.29,1.08.29s-.69-.51-.46-.74A9.87,9.87,0,0,1,189.92,202.84Z" transform="translate(-66.83 -25.13)"/><path class="cls-19" d="M180.25,198.28s-1,.46-1.34.6a2,2,0,0,1-1.6-.25s.51.44.45.69-.64.7-.64.7a3.33,3.33,0,0,1,1.35-.4c.41.08,1.08.29,1.08.29s-.69-.52-.45-.74A8.54,8.54,0,0,1,180.25,198.28Z" transform="translate(-66.83 -25.13)"/><path class="cls-19" d="M160.68,220.28s-1,.46-1.34.6a2,2,0,0,1-1.6-.25s.51.44.45.69-.65.7-.65.7a3.39,3.39,0,0,1,1.36-.4c.41.08,1.08.29,1.08.29s-.69-.51-.46-.74A9.05,9.05,0,0,1,160.68,220.28Z" transform="translate(-66.83 -25.13)"/><path class="cls-19" d="M129.65,209.11s-1,.47-1.34.6a2,2,0,0,1-1.6-.25s.51.44.45.69-.64.7-.64.7a3.49,3.49,0,0,1,1.35-.4c.41.08,1.08.29,1.08.29s-.69-.51-.45-.74A8.54,8.54,0,0,1,129.65,209.11Z" transform="translate(-66.83 -25.13)"/><path class="cls-7" d="M165.77,193.33s-1,.46-1.35.6a2,2,0,0,1-1.59-.26s.51.44.45.69-.65.71-.65.71a3.53,3.53,0,0,1,1.36-.41c.41.08,1.08.29,1.08.29s-.69-.51-.46-.74A9.62,9.62,0,0,1,165.77,193.33Z" transform="translate(-66.83 -25.13)"/><path class="cls-7" d="M170.82,214.42s-1,.47-1.34.6a2,2,0,0,1-1.6-.25s.52.44.46.69-.65.7-.65.7a3.56,3.56,0,0,1,1.36-.4c.41.08,1.08.29,1.08.29s-.69-.51-.46-.74A9.27,9.27,0,0,1,170.82,214.42Z" transform="translate(-66.83 -25.13)"/><path class="cls-7" d="M183.62,206.48s-1,.46-1.35.6a2,2,0,0,1-1.59-.26s.51.45.45.69-.65.71-.65.71a3.39,3.39,0,0,1,1.36-.4,9.94,9.94,0,0,1,1.08.29s-.69-.52-.46-.75A9.62,9.62,0,0,1,183.62,206.48Z" transform="translate(-66.83 -25.13)"/><path class="cls-7" d="M165.93,189s-1,.47-1.34.61a2,2,0,0,1-1.6-.26s.51.44.45.69-.64.7-.64.7a3.49,3.49,0,0,1,1.35-.4c.41.08,1.08.29,1.08.29s-.69-.51-.45-.74A8.54,8.54,0,0,1,165.93,189Z" transform="translate(-66.83 -25.13)"/><path class="cls-3" d="M155.12,213.21a54.44,54.44,0,0,0-6.48,1.44l-1.44-.83-.49-.28-1.44-.84a17.29,17.29,0,0,0,2.5-3.73,27.86,27.86,0,0,0,1.25-4.19,64.76,64.76,0,0,0-3.83,5.63,15.33,15.33,0,0,1-3.76,3.81l4.3,2.49a44.46,44.46,0,0,1,6.88-2c3.12-.55,9.76-2.21,9.76-2.21S158.74,212.7,155.12,213.21Z" transform="translate(-66.83 -25.13)"/><path class="cls-3" d="M138.5,210.16s-6.31,4.91-8,7.54c-1.18,1.81-1.44,6.75-1.44,6.75l4-2.21s.16-4.69,1.66-7C135.78,213.53,138.5,210.16,138.5,210.16Z" transform="translate(-66.83 -25.13)"/><path class="cls-3" d="M153.83,219s-8.5,3.63-13.05,4.62c-3.14.69-11.74.81-11.74.81l4-2.21a88.23,88.23,0,0,0,12-1C148,220.58,153.83,219,153.83,219Z" transform="translate(-66.83 -25.13)"/><path class="cls-3" d="M141.65,213.28s-5.38,3.34-5.5,5.4,3.44-1.31,4.13-2a13.43,13.43,0,0,1,2.95-1.71Z" transform="translate(-66.83 -25.13)"/><path class="cls-3" d="M147.75,216.81s-6.52,3.93-10.08,4,2.47-2,4.52-3a20.14,20.14,0,0,0,2.68-1.89Z" transform="translate(-66.83 -25.13)"/><path class="cls-7" d="M150.52,216.19c-2.45,1.42-6.16,1.58-8.29.35s-1.86-3.37.59-4.79,6.17-1.57,8.3-.34S153,214.78,150.52,216.19Z" transform="translate(-66.83 -25.13)"/><path class="cls-18" d="M139.38,215.32a2.93,2.93,0,0,1,1.23-2.29c1-.62,1.21.14,1.23.44.61-.27,1.11,0,1.17.2a1.29,1.29,0,0,1,0,.57,1.31,1.31,0,0,1,1.15,0c.35.24.21,1,.21,1a3,3,0,0,1,1.55.06c.27.15,0,.73,0,.73s1.18-.23,1.31,0-.22.56-.22.56a13,13,0,0,1,1.32.07c.69.1.86.59-.43,1a12.46,12.46,0,0,1-2.79.53C144.12,218.14,140,217.37,139.38,215.32Z" transform="translate(-66.83 -25.13)"/><path class="cls-7" d="M140.33,231.58,116,217.51c-2-1.15-1.74-3.16.56-4.49L159.94,188c2.3-1.33,5.79-1.47,7.78-.33l24.36,14.07c2,1.15,1.74,3.16-.56,4.49l-43.41,25.06C145.81,232.58,142.32,232.72,140.33,231.58Zm26.87-43.64a7.55,7.55,0,0,0-6.8.28L117,213.28c-2,1.16-2.23,2.92-.49,3.93l24.36,14.06a7.55,7.55,0,0,0,6.8-.28l43.41-25.06c2-1.16,2.23-2.92.49-3.93Z" transform="translate(-66.83 -25.13)"/><path class="cls-7" d="M140.37,225.08a7.05,7.05,0,0,1-6.34.26c-1.63-.93-1.42-2.57.45-3.66a7.07,7.07,0,0,1,6.35-.26C142.45,222.36,142.25,224,140.37,225.08Z" transform="translate(-66.83 -25.13)"/><polygon class="cls-12" points="68.78 198.73 73.18 198.82 74.47 198.11 73.34 197.5 68.88 197.96 68.94 197.52 68.53 197.54 68.47 198.06 67.22 198.11 67.15 198.65 68.4 198.6 68.33 199.18 68.73 199.17 68.78 198.73"/><path class="cls-6" d="M140.23,227.05l.72.42,2.22-1.28-.62-.36.55-.32a4.56,4.56,0,0,0,1.17.27l.57.33-3.12,1.8.62.36-.72.42-2.11-1.22Z" transform="translate(-66.83 -25.13)"/><path class="cls-6" d="M143.4,228.53a.63.63,0,0,0,.34.63,1.13,1.13,0,0,0,1.15,0c.39-.23.38-.47.07-.65a1.43,1.43,0,0,0-.68-.17l-.09-.34,2-1.07L148.1,228l-.75.43-1.21-.7-.78.38a1.19,1.19,0,0,1,.46.16c.57.33.68.82-.13,1.3a2.71,2.71,0,0,1-2.56.07c-.55-.32-.68-.66-.63-1Z" transform="translate(-66.83 -25.13)"/><path class="cls-7" d="M126.19,216.89a7,7,0,0,1-6.35.26c-1.62-.93-1.42-2.57.46-3.66a7.05,7.05,0,0,1,6.34-.26C128.27,214.17,128.06,215.81,126.19,216.89Z" transform="translate(-66.83 -25.13)"/><path class="cls-12" d="M126.2,214.46a22.15,22.15,0,0,0-3.16,1.07c-.87.46-.66.84-.4,1a1.71,1.71,0,0,0,1.7-.23A10.81,10.81,0,0,0,126.2,214.46Z" transform="translate(-66.83 -25.13)"/><path class="cls-7" d="M125.39,213.36a34.37,34.37,0,0,0-4.73,1.6c-1.29.69-1,1.25-.6,1.47a2.59,2.59,0,0,0,2.55-.35A15.91,15.91,0,0,0,125.39,213.36Z" transform="translate(-66.83 -25.13)"/><path class="cls-12" d="M124.83,213.62a29.49,29.49,0,0,0-4.08,1.38c-1.11.59-.84,1.08-.51,1.27a2.23,2.23,0,0,0,2.19-.3A13.71,13.71,0,0,0,124.83,213.62Z" transform="translate(-66.83 -25.13)"/><path class="cls-6" d="M130.26,218.19a.44.44,0,0,0-.24-.45c-.37-.22-1-.21-1.89.29a1.94,1.94,0,0,1,1.07.15c.57.33.62.79-.19,1.26a2.52,2.52,0,0,1-2.39.1c-.65-.37-.7-1,.65-1.82a3.61,3.61,0,0,1,3.42-.43c.44.26.55.56.51.83Zm-1.95.84c.4-.23.37-.43.12-.57a1.35,1.35,0,0,0-.88-.07c-.54.39-.51.63-.28.76A1.07,1.07,0,0,0,128.31,219Z" transform="translate(-66.83 -25.13)"/><path class="cls-6" d="M130.11,219.24c1.31-.75,2.45-.86,3.16-.45s.52,1.07-.79,1.82-2.48.89-3.19.48S128.81,220,130.11,219.24Zm1.65.95c1.05-.6,1.09-.86.83-1s-.7-.13-1.75.48-1.12.88-.86,1S130.71,220.8,131.76,220.19Z" transform="translate(-66.83 -25.13)"/></svg>